<svg width="600" height="400" viewBox="0 0 600 400" fill="none" xmlns="http://www.w3.org/2000/svg">
  <rect width="600" height="400" fill="#F3F4F6"/>
  <path d="M300 120C300 120 300 140 300 140M300 140C322.091 140 340 157.909 340 180V240C340 262.091 322.091 280 300 280C277.909 280 260 262.091 260 240V180C260 157.909 277.909 140 300 140ZM300 140V100M300 100C294.477 100 290 95.5228 290 90C290 84.4772 294.477 80 300 80C305.523 80 310 84.4772 310 90C310 95.5228 305.523 100 300 100ZM240 240H360" stroke="#4F46E5" stroke-width="12" stroke-linecap="round" stroke-linejoin="round"/>
  <text x="300" y="340" font-family="system-ui, -apple-system, sans-serif" font-size="24" font-weight="600" fill="#4B5563" text-anchor="middle">Nautical North</text>
</svg>